<?xml version="1.0" encoding="utf-8"?>
<!-- Generator: Adobe Illustrator 16.0.0, SVG Export Plug-In . SVG Version: 6.00 Build 0)  -->
<!DOCTYPE svg PUBLIC "-//W3C//DTD SVG 1.1//EN" "http://www.w3.org/Graphics/SVG/1.1/DTD/svg11.dtd">
<svg version="1.1" id="图层_1" xmlns="http://www.w3.org/2000/svg" xmlns:xlink="http://www.w3.org/1999/xlink" x="0px" y="0px"
	 width="48px" height="48px" viewBox="0 0 48 48" enable-background="new 0 0 48 48" xml:space="preserve">
<g>
	<g>
		<path fill="#A2A2A2" d="M24,43C13.523,43,5,34.477,5,24S13.523,5,24,5s19,8.524,19,19S34.477,43,24,43z M24,6.809
			C14.521,6.809,6.81,14.521,6.81,24c0,9.479,7.711,17.19,17.19,17.19S41.19,33.479,41.19,24C41.19,14.521,33.479,6.809,24,6.809z"
			/>
	</g>
	<g>
		<path fill="#A2A2A2" d="M24,34.977l-7.358-7.335c-0.082-0.077-2.507-2.375-2.507-5.121c0-3.985,2.771-5.405,5.363-5.405
			c1.869,0,3.576,1.386,4.501,2.305c0.926-0.919,2.631-2.305,4.501-2.305c2.593,0,5.364,1.42,5.364,5.405
			c0,2.746-2.425,5.044-2.528,5.141L24,34.977z M19.499,18.925c-1.621,0-3.554,0.624-3.554,3.596c0,1.955,1.936,3.802,1.955,3.82
			l6.1,6.08l6.081-6.062c0.039-0.037,1.975-1.884,1.975-3.839c0-2.972-1.933-3.596-3.554-3.596c-1.51,0-3.254,1.734-3.799,2.402
			l-0.703,0.862l-0.702-0.862C22.753,20.659,21.008,18.925,19.499,18.925z"/>
	</g>
</g>
</svg>
