<?xml version="1.0" encoding="utf-8"?>
<!-- Generator: Adobe Illustrator 16.0.0, SVG Export Plug-In . SVG Version: 6.00 Build 0)  -->
<!DOCTYPE svg PUBLIC "-//W3C//DTD SVG 1.1//EN" "http://www.w3.org/Graphics/SVG/1.1/DTD/svg11.dtd">
<svg version="1.1" id="图层_1" xmlns="http://www.w3.org/2000/svg" xmlns:xlink="http://www.w3.org/1999/xlink" x="0px" y="0px"
	 width="48px" height="48px" viewBox="0 0 48 48" enable-background="new 0 0 48 48" xml:space="preserve">
<g>
	<g>
		<path fill="#A2A2A2" d="M24,43C13.523,43,5,34.477,5,24S13.523,5,24,5s19,8.523,19,19S34.477,43,24,43z M24,6.81
			C14.521,6.81,6.81,14.521,6.81,24c0,9.479,7.711,17.19,17.19,17.19S41.19,33.479,41.19,24C41.19,14.521,33.479,6.81,24,6.81z"/>
	</g>
	<g>
		<path fill="#A2A2A2" d="M27.652,31.038l-0.264,1.082c-0.794,0.313-1.428,0.552-1.901,0.717c-0.473,0.163-1.023,0.246-1.648,0.246
			c-0.962,0-1.71-0.234-2.244-0.704c-0.534-0.47-0.8-1.064-0.8-1.786c0-0.28,0.02-0.567,0.06-0.86s0.104-0.624,0.193-0.993
			l0.993-3.513c0.088-0.337,0.164-0.655,0.224-0.957c0.06-0.3,0.09-0.575,0.09-0.823c0-0.449-0.092-0.763-0.277-0.939
			c-0.185-0.176-0.539-0.264-1.062-0.264c-0.257,0-0.521,0.04-0.79,0.12c-0.27,0.08-0.501,0.156-0.694,0.229l0.265-1.083
			c0.65-0.265,1.273-0.49,1.867-0.68c0.594-0.188,1.156-0.283,1.687-0.283c0.956,0,1.692,0.231,2.21,0.692
			c0.518,0.462,0.776,1.061,0.776,1.799c0,0.152-0.018,0.421-0.054,0.806c-0.036,0.385-0.102,0.738-0.198,1.059l-0.989,3.501
			c-0.081,0.281-0.153,0.602-0.217,0.963c-0.064,0.361-0.097,0.634-0.097,0.818c0,0.466,0.104,0.781,0.312,0.95
			c0.208,0.168,0.569,0.253,1.082,0.253c0.24,0,0.512-0.043,0.817-0.126C27.296,31.176,27.516,31.102,27.652,31.038z M27.905,16.348
			c0,0.609-0.231,1.129-0.692,1.558c-0.461,0.43-1.016,0.644-1.666,0.644c-0.65,0-1.208-0.214-1.672-0.644
			c-0.465-0.429-0.698-0.948-0.698-1.558s0.232-1.131,0.698-1.564c0.465-0.433,1.022-0.649,1.672-0.649
			c0.649,0,1.205,0.217,1.666,0.649C27.674,15.217,27.905,15.738,27.905,16.348z"/>
	</g>
</g>
</svg>
